# Blender 4.3.2
# www.blender.org
mtllib Ram.mtl
o obj_0
v 0.010000 0.250704 0.676750
v 0.010000 0.000704 0.676750
v 0.010000 0.000704 -0.676750
v 0.010000 0.250704 -0.676750
v -0.010000 0.250704 -0.676750
v -0.010000 0.000704 -0.676750
v -0.010000 0.000704 0.676750
v -0.010000 0.250704 0.676750
vn 1.0000 -0.0000 -0.0000
vn -1.0000 -0.0000 -0.0000
vn -0.0000 -0.0000 -1.0000
vn -0.0000 1.0000 -0.0000
vn -0.0000 -1.0000 -0.0000
vn -0.0000 -0.0000 1.0000
vt 1.000000 0.500000
vt 1.000000 0.000000
vt 0.000000 0.000000
vt 0.000000 0.500000
vt 0.000000 1.000000
vt 0.000000 0.500000
vt 1.000000 0.500000
vt 1.000000 1.000000
s 0
usemtl color_4634441
f 1/1/1 2/2/1 3/3/1
f 1/1/1 3/3/1 4/4/1
f 5/5/2 6/6/2 7/7/2
f 5/5/2 7/7/2 8/8/2
f 4/5/3 3/6/3 6/6/3
f 4/5/3 6/6/3 5/5/3
f 4/5/4 5/5/4 8/8/4
f 4/5/4 8/8/4 1/8/4
f 2/7/5 7/7/5 6/6/5
f 2/7/5 6/6/5 3/6/5
f 8/8/6 7/7/6 2/7/6
f 8/8/6 2/7/6 1/8/6
