# Blender 4.3.2
# www.blender.org
mtllib Monitor.mtl
o Cube
v -0.141715 -0.019527 0.217390
v -0.141715 0.030381 0.217390
v -0.141715 -0.019527 -0.217390
v -0.141715 0.030381 -0.217390
v 0.141715 -0.019527 0.217390
v 0.141715 0.030381 0.217390
v 0.141715 -0.019527 -0.217390
v 0.141715 0.030381 -0.217390
v -0.042651 0.030381 0.065426
v -0.042651 0.030381 -0.065426
v 0.042651 0.030381 -0.065426
v 0.042651 0.030381 0.065426
v -0.042651 0.271606 0.065426
v -0.042651 0.271606 -0.065426
v 0.042651 0.271606 -0.065426
v 0.042651 0.271606 0.065426
v -0.092827 0.271606 0.577703
v -0.092827 0.271606 -0.577703
v 0.092827 0.271606 -0.577703
v 0.092827 0.271606 0.577703
v -0.092827 0.942529 0.577703
v -0.092827 0.942529 -0.577703
v 0.092827 0.942529 -0.577703
v 0.092827 0.942529 0.577703
v 0.092827 0.307319 -0.532701
v 0.092827 0.307319 0.532701
v 0.092827 0.906816 -0.532701
v 0.092827 0.906816 0.532701
v -0.007308 0.307319 -0.532701
v -0.007308 0.307319 0.532701
v -0.007308 0.906816 -0.532701
v -0.007308 0.906816 0.532701
vn -1.0000 -0.0000 -0.0000
vn -0.0000 -0.0000 -1.0000
vn 1.0000 -0.0000 -0.0000
vn -0.0000 -0.0000 1.0000
vn -0.0000 -1.0000 -0.0000
vn -0.0000 1.0000 -0.0000
vt 0.576623 0.238522
vt 0.555921 0.238522
vt 0.555921 0.058183
vt 0.576622 0.058183
vt 0.555921 0.037482
vt 0.438360 0.058183
vt 0.438360 0.037482
vt 0.417659 0.058183
vt 0.438360 0.238522
vt 0.417659 0.238522
vt 0.438360 0.259224
vt 0.555921 0.259224
vt 0.943736 0.711712
vt 0.943736 0.888123
vt 0.673122 0.888123
vt 0.673122 0.711712
vt 0.479450 0.121215
vt 0.479450 0.175490
vt 0.574676 0.375672
vt 0.574676 0.428673
vt 0.424793 0.428673
vt 0.424793 0.375672
vt 0.514831 0.175490
vt 0.514831 0.121215
vt 0.213987 0.927533
vt 0.213987 0.948196
vt 0.089899 0.960350
vt 0.089899 0.915379
vt 0.574676 0.509977
vt 0.574676 0.562978
vt 0.424793 0.562978
vt 0.424793 0.509977
vt 0.574676 0.294368
vt 0.424793 0.294368
vt 0.369770 0.960350
vt 0.369770 0.915379
vt 0.532286 0.915379
vt 0.532286 0.960350
vt 0.245682 0.927533
vt 0.245682 0.948196
vt 0.812156 0.915379
vt 0.812156 0.960350
vt 0.974672 0.915379
vt 0.974672 0.960350
vt 0.097697 0.858627
vt 0.097697 0.596983
vt 0.115246 0.610910
vt 0.115246 0.844700
vt 0.377445 0.033216
vt 0.377445 0.521471
vt 0.093925 0.521471
vt 0.093925 0.033216
vt 0.019370 0.819932
vt 0.019370 0.499983
vt 0.049442 0.499983
vt 0.049442 0.819932
vt 0.548279 0.858627
vt 0.530730 0.844700
vt 0.548279 0.596983
vt 0.530730 0.610910
vt 1.000000 0.000000
vt 1.000000 0.686292
vt 0.613827 0.686292
vt 0.613827 0.000000
vt 0.019370 0.319949
vt 0.049442 0.319949
vt 0.019370 0.000000
vt 0.049442 0.000000
vt 0.019370 0.999965
vt 0.049442 0.999965
s 0
f 1/1/1 2/2/1 4/3/1 3/4/1
f 3/5/2 4/3/2 8/6/2 7/7/2
f 7/8/3 8/6/3 6/9/3 5/10/3
f 5/11/4 6/9/4 2/2/4 1/12/4
f 3/13/5 7/14/5 5/15/5 1/16/5
f 6/9/6 8/6/6 11/17/6 12/18/6
f 9/19/4 12/20/4 16/21/4 13/22/4
f 4/3/6 2/2/6 9/23/6 10/24/6
f 2/2/6 6/9/6 12/18/6 9/23/6
f 8/6/6 4/3/6 10/24/6 11/17/6
f 15/25/5 14/26/5 18/27/5 19/28/5
f 11/29/2 10/30/2 14/31/2 15/32/2
f 12/20/3 11/29/3 15/32/3 16/21/3
f 10/33/1 9/19/1 13/22/1 14/34/1
f 17/35/4 20/36/4 24/37/4 21/38/4
f 16/39/5 15/25/5 19/28/5 20/36/5
f 14/26/5 13/40/5 17/35/5 18/27/5
f 13/40/5 16/39/5 20/36/5 17/35/5
f 23/41/6 22/42/6 21/38/6 24/37/6
f 19/43/2 18/44/2 22/42/2 23/41/2
f 24/45/3 20/46/3 26/47/3 28/48/3
f 18/49/1 17/50/1 21/51/1 22/52/1
f 26/53/6 25/54/6 29/55/6 30/56/6
f 23/57/3 24/45/3 28/48/3 27/58/3
f 19/59/3 23/57/3 27/58/3 25/60/3
f 20/46/3 19/59/3 25/60/3 26/47/3
f 30/61/3 29/62/3 31/63/3 32/64/3
f 25/54/4 27/65/4 31/66/4 29/55/4
f 27/65/5 28/67/5 32/68/5 31/66/5
f 28/69/2 26/53/2 30/56/2 32/70/2
