# Blender 4.3.2
# www.blender.org
mtllib holder.mtl
o obj_0
v 0.100000 -0.549260 -0.000000
v 0.100000 -0.544551 -0.071790
v 0.100000 0.477109 -0.275010
v 0.100000 0.437129 -0.334830
v 0.100000 -0.530510 -0.142360
v 0.100000 0.508929 -0.210490
v 0.100000 -0.507391 -0.210490
v 0.100000 -0.475571 -0.275010
v 0.100000 0.532050 -0.142360
v 0.100000 0.546089 -0.071790
v 0.100000 0.550789 -0.000000
v -0.100000 0.072560 0.545320
v 0.100000 0.072560 0.545320
v 0.100000 0.000770 0.550030
v -0.100000 0.000770 0.550030
v 0.100000 0.546089 0.071790
v 0.100000 -0.475570 0.275010
v 0.100000 -0.071020 0.545320
v -0.100000 -0.071020 0.545320
v 0.100000 -0.507391 0.210490
v 0.100000 0.072559 -0.545320
v 0.100000 0.000769 -0.550020
v 0.100000 -0.141590 0.531280
v -0.100000 -0.141590 0.531280
v 0.100000 -0.530510 0.142360
v 0.100000 0.143129 -0.531280
v 0.100000 -0.544551 0.071790
v 0.100000 -0.209720 0.508160
v -0.100000 -0.209720 0.508160
v 0.100000 0.211259 -0.508160
v 0.100000 -0.274241 0.476340
v 0.100000 -0.435590 -0.334830
v -0.100000 -0.274241 0.476340
v 0.100000 0.211259 0.508160
v 0.100000 -0.388161 -0.388930
v 0.100000 -0.334060 0.436360
v -0.100000 -0.334060 0.436360
v -0.100000 -0.435590 -0.334830
v 0.100000 0.143129 0.531280
v 0.100000 -0.334061 -0.436360
v 0.100000 -0.388161 0.388930
v -0.100000 -0.388161 0.388930
v 0.100000 -0.274241 -0.476340
v 0.100000 -0.209720 -0.508160
v 0.100000 -0.435590 0.334830
v -0.100000 -0.435590 0.334830
v 0.100000 -0.141590 -0.531280
v 0.100000 -0.071021 -0.545320
v -0.100000 0.546089 0.071790
v 0.100000 0.275780 -0.476340
v 0.100000 0.532050 0.142360
v -0.100000 0.532050 0.142360
v 0.100000 0.335599 -0.436360
v 0.100000 0.508929 0.210490
v -0.100000 0.508929 0.210490
v 0.100000 0.389700 -0.388930
v 0.100000 0.477110 0.275010
v -0.100000 0.477110 0.275010
v 0.100000 0.437130 0.334830
v -0.100000 0.437130 0.334830
v 0.100000 0.389700 0.388930
v -0.100000 0.389700 0.388930
v 0.100000 0.335600 0.436360
v -0.100000 0.335600 0.436360
v -0.100000 0.000769 -0.550020
v 0.100000 0.275780 0.476340
v -0.100000 0.275780 0.476340
v -0.100000 0.590769 -0.600000
v -0.100000 -0.549260 -0.000000
v -0.100000 -0.609231 -0.600000
v -0.100000 -0.609230 0.600000
v 0.100000 0.590770 0.600000
v -0.100000 0.590770 0.600000
v -0.100000 -0.388161 -0.388930
v 0.100000 -0.609230 0.600000
v 0.100000 0.590769 -0.600000
v 0.100000 -0.609231 -0.600000
v -0.100000 -0.334061 -0.436360
v -0.100000 -0.274241 -0.476340
v -0.100000 -0.209720 -0.508160
v -0.100000 -0.141590 -0.531280
v -0.100000 -0.544551 -0.071790
v -0.100000 -0.071021 -0.545320
v -0.100000 -0.530510 -0.142360
v -0.100000 -0.507391 -0.210490
v -0.100000 0.275780 -0.476340
v -0.100000 -0.475571 -0.275010
v -0.100000 0.335599 -0.436360
v -0.100000 0.072559 -0.545320
v -0.100000 0.389700 -0.388930
v -0.100000 0.143129 -0.531280
v -0.100000 0.437129 -0.334830
v -0.100000 0.211259 -0.508160
v -0.100000 0.477109 -0.275010
v -0.100000 0.508929 -0.210490
v -0.100000 0.532050 -0.142360
v -0.100000 0.546089 -0.071790
v -0.100000 0.550789 -0.000000
v -0.100000 -0.475570 0.275010
v -0.100000 -0.507391 0.210490
v -0.100000 -0.530510 0.142360
v -0.100000 -0.544551 0.071790
v -0.100000 0.211259 0.508160
v -0.100000 0.143129 0.531280
vn 1.0000 -0.0000 -0.0000
vn -0.0000 -0.0655 -0.9979
vn -0.0000 0.0655 -0.9979
vn -0.0000 0.1951 -0.9808
vn -0.0000 0.3214 -0.9470
vn -0.0000 0.4423 -0.8969
vn -0.0000 0.5557 -0.8314
vn -0.0000 0.6592 -0.7519
vn -0.0000 0.7519 -0.6592
vn -0.0000 0.8314 -0.5557
vn -0.0000 -0.9979 -0.0653
vn -0.0000 -0.9808 -0.1951
vn -0.0000 -0.9470 -0.3214
vn -0.0000 -0.8969 -0.4423
vn -0.0000 -0.8314 -0.5557
vn -0.0000 -0.7519 -0.6592
vn -0.0000 -0.6592 -0.7519
vn -0.0000 -0.5557 -0.8314
vn -0.0000 -0.4423 -0.8969
vn -1.0000 -0.0000 -0.0000
vn -0.0000 -0.0000 1.0000
vn -0.0000 -0.0000 -1.0000
vn -0.0000 -1.0000 -0.0000
vn -0.0000 1.0000 -0.0000
vn -0.0000 0.9979 -0.0655
vn -0.0000 0.9979 0.0655
vn -0.0000 0.9808 0.1951
vn -0.0000 0.9470 0.3214
vn -0.0000 0.9470 0.3213
vn -0.0000 0.8969 0.4423
vn -0.0000 0.8314 0.5557
vn -0.0000 -0.0653 0.9979
vn -0.0000 -0.1951 0.9808
vn -0.0000 -0.3214 0.9470
vn -0.0000 -0.4423 0.8969
vn -0.0000 0.7519 0.6592
vn -0.0000 0.6592 0.7519
vn -0.0000 0.5557 0.8314
vn -0.0000 0.4423 0.8969
vn -0.0000 0.3214 0.9470
vn -0.0000 0.1951 0.9808
vn -0.0000 0.0653 0.9979
vn -0.0000 -0.5557 0.8314
vn -0.0000 -0.6592 0.7519
vn -0.0000 -0.7519 0.6592
vn -0.0000 -0.8314 0.5557
vn -0.0000 -0.8969 0.4423
vn -0.0000 -0.9470 0.3214
vn -0.0000 -0.9808 0.1951
vn -0.0000 -0.9979 0.0653
vn -0.0000 0.8969 -0.4423
vn -0.0000 0.9470 -0.3213
vn -0.0000 0.9470 -0.3214
vn -0.0000 0.9808 -0.1951
vn -0.0000 -0.3214 -0.9470
vn -0.0000 -0.1951 -0.9808
s 0
usemtl color_15277357
f 4//1 56//1 76//1
f 3//1 4//1 76//1
f 2//1 77//1 5//1
f 6//1 76//1 9//1
f 12//2 13//2 14//2
f 12//2 14//2 15//2
f 7//1 77//1 8//1
f 15//3 14//3 18//3
f 15//3 18//3 19//3
f 19//4 18//4 23//4
f 19//4 23//4 24//4
f 20//1 17//1 75//1
f 24//5 23//5 28//5
f 24//5 28//5 29//5
f 21//1 76//1 26//1
f 76//1 30//1 26//1
f 29//6 28//6 31//6
f 29//6 31//6 33//6
f 33//7 31//7 36//7
f 33//7 36//7 37//7
f 8//1 77//1 32//1
f 39//1 34//1 72//1
f 37//8 36//8 41//8
f 37//8 41//8 42//8
f 35//1 32//1 77//1
f 40//1 35//1 77//1
f 72//1 13//1 39//1
f 42//9 41//9 45//9
f 42//9 45//9 46//9
f 43//1 40//1 77//1
f 44//1 43//1 77//1
f 17//10 46//10 45//10
f 47//1 44//1 77//1
f 48//1 47//1 77//1
f 16//11 49//11 11//11
f 18//1 75//1 23//1
f 28//1 23//1 75//1
f 51//12 52//12 49//12
f 51//12 49//12 16//12
f 50//1 30//1 76//1
f 54//13 55//13 52//13
f 54//13 52//13 51//13
f 36//1 75//1 41//1
f 57//14 58//14 55//14
f 57//14 55//14 54//14
f 56//1 53//1 76//1
f 45//1 41//1 75//1
f 75//1 17//1 45//1
f 59//15 60//15 58//15
f 59//15 58//15 57//15
f 61//16 62//16 60//16
f 61//16 60//16 59//16
f 62//17 61//17 63//17
f 62//17 63//17 64//17
f 64//18 63//18 66//18
f 64//18 66//18 67//18
f 34//19 67//19 66//19
f 65//20 89//20 68//20
f 70//20 65//20 68//20
f 72//1 51//1 16//1
f 71//20 69//20 70//20
f 54//1 51//1 72//1
f 72//21 73//21 71//21
f 72//21 71//21 75//21
f 57//1 54//1 72//1
f 77//22 68//22 76//22
f 77//22 70//22 68//22
f 59//1 57//1 72//1
f 71//23 70//23 77//23
f 71//23 77//23 75//23
f 68//24 73//24 76//24
f 72//24 76//24 73//24
f 63//1 61//1 72//1
f 61//1 59//1 72//1
f 80//20 70//20 79//20
f 102//25 1//25 69//25
f 66//1 72//1 34//1
f 63//1 72//1 66//1
f 69//26 1//26 2//26
f 69//26 2//26 82//26
f 83//20 70//20 81//20
f 82//27 2//27 5//27
f 82//27 5//27 84//27
f 25//1 20//1 75//1
f 36//1 31//1 75//1
f 75//1 31//1 28//1
f 18//1 14//1 75//1
f 13//1 72//1 14//1
f 75//1 14//1 72//1
f 80//20 81//20 70//20
f 70//20 83//20 65//20
f 84//28 5//28 7//28
f 84//29 7//29 85//29
f 85//30 7//30 8//30
f 85//30 8//30 87//30
f 11//1 72//1 16//1
f 76//1 72//1 11//1
f 10//1 76//1 11//1
f 88//20 68//20 86//20
f 87//31 8//31 38//31
f 21//32 89//32 65//32
f 21//32 65//32 22//32
f 10//1 9//1 76//1
f 6//1 3//1 76//1
f 53//1 50//1 76//1
f 22//1 76//1 21//1
f 22//1 48//1 77//1
f 77//1 76//1 22//1
f 90//20 68//20 88//20
f 26//33 91//33 89//33
f 26//33 89//33 21//33
f 92//20 68//20 90//20
f 7//1 5//1 77//1
f 2//1 1//1 77//1
f 75//1 77//1 1//1
f 75//1 1//1 27//1
f 27//1 25//1 75//1
f 30//34 93//34 91//34
f 30//34 91//34 26//34
f 69//20 71//20 102//20
f 94//20 68//20 92//20
f 95//20 68//20 94//20
f 30//35 86//35 93//35
f 84//20 70//20 82//20
f 69//20 82//20 70//20
f 96//20 68//20 95//20
f 85//20 70//20 84//20
f 38//31 8//31 32//31
f 97//20 68//20 96//20
f 87//20 70//20 85//20
f 38//36 32//36 35//36
f 38//36 35//36 74//36
f 98//20 68//20 97//20
f 74//20 70//20 38//20
f 87//20 38//20 70//20
f 78//20 70//20 74//20
f 78//20 79//20 70//20
f 40//37 78//37 74//37
f 40//37 74//37 35//37
f 100//20 71//20 99//20
f 99//20 71//20 46//20
f 91//20 68//20 89//20
f 93//20 68//20 91//20
f 102//20 71//20 101//20
f 86//20 68//20 93//20
f 100//20 101//20 71//20
f 43//38 79//38 78//38
f 43//38 78//38 40//38
f 12//20 73//20 104//20
f 103//20 104//20 73//20
f 44//39 80//39 79//39
f 44//39 79//39 43//39
f 29//20 71//20 24//20
f 47//40 81//40 80//40
f 47//40 80//40 44//40
f 42//20 71//20 37//20
f 19//20 24//20 71//20
f 48//41 83//41 81//41
f 48//41 81//41 47//41
f 71//20 29//20 33//20
f 33//20 37//20 71//20
f 83//42 48//42 22//42
f 83//42 22//42 65//42
f 55//20 73//20 52//20
f 50//35 86//35 30//35
f 49//20 52//20 73//20
f 53//43 88//43 86//43
f 53//43 86//43 50//43
f 64//20 73//20 62//20
f 56//44 90//44 88//44
f 56//44 88//44 53//44
f 103//20 73//20 67//20
f 4//45 92//45 90//45
f 4//45 90//45 56//45
f 64//20 67//20 73//20
f 73//20 12//20 15//20
f 15//20 19//20 71//20
f 42//20 46//20 71//20
f 73//20 15//20 71//20
f 3//46 94//46 92//46
f 3//46 92//46 4//46
f 73//20 68//20 98//20
f 49//20 73//20 98//20
f 73//20 55//20 58//20
f 73//20 58//20 60//20
f 60//20 62//20 73//20
f 6//47 95//47 94//47
f 6//47 94//47 3//47
f 9//48 96//48 95//48
f 9//48 95//48 6//48
f 10//49 97//49 96//49
f 10//49 96//49 9//49
f 11//50 98//50 97//50
f 11//50 97//50 10//50
f 11//11 49//11 98//11
f 46//10 17//10 99//10
f 99//51 17//51 20//51
f 99//51 20//51 100//51
f 100//52 20//52 25//52
f 100//53 25//53 101//53
f 101//54 25//54 27//54
f 101//54 27//54 102//54
f 1//25 102//25 27//25
f 67//19 34//19 103//19
f 103//55 34//55 39//55
f 103//55 39//55 104//55
f 104//56 39//56 13//56
f 104//56 13//56 12//56
