# Blender 4.3.2
# www.blender.org
mtllib 18 10 PortMB.mtl
o Cube.002
v -0.314561 -0.039333 0.555313
v -0.314561 0.039214 0.555313
v -0.314561 -0.039333 0.486004
v -0.314561 0.039214 0.486004
v -0.125238 -0.039333 0.555313
v -0.125238 0.039214 0.555313
v -0.125238 -0.039333 0.486004
v -0.125238 0.039214 0.486004
v -0.317457 0.042897 0.486004
v -0.317457 -0.043016 0.486004
v -0.122342 -0.043016 0.486004
v -0.122342 0.042897 0.486004
v -0.317457 0.042897 0.407151
v -0.317457 -0.043016 0.407151
v -0.122065 -0.043016 0.406887
v -0.122065 0.042897 0.406887
v -0.239086 0.042897 0.475813
v -0.200712 0.042897 0.475813
v -0.239086 0.042897 0.461852
v -0.200712 0.042897 0.461852
v -0.239086 0.074276 0.475813
v -0.200712 0.074276 0.475813
v -0.239086 0.075586 0.461852
v -0.200712 0.075586 0.461852
v -0.239086 0.098853 0.473516
v -0.200712 0.098853 0.473516
v -0.239086 0.098853 0.453455
v -0.200712 0.098853 0.453455
v -0.239086 0.075586 0.421246
v -0.200712 0.075586 0.421246
v -0.239086 0.098853 0.421246
v -0.200712 0.098853 0.421246
v -0.239086 0.067794 0.547234
v -0.200712 0.067794 0.547234
v -0.239086 0.098853 0.547524
v -0.200712 0.098853 0.547524
v -0.239086 0.098853 0.519717
v -0.200712 0.098853 0.519717
v -0.200712 0.073881 0.520007
v -0.239086 0.073881 0.520007
v -0.068394 -0.039333 0.555367
v -0.068394 0.039214 0.555367
v -0.068394 -0.039333 0.486058
v -0.068394 0.039214 0.486058
v 0.284034 -0.039333 0.555367
v 0.284034 0.039214 0.555367
v 0.284034 -0.039333 0.486058
v 0.284034 0.039214 0.486058
v -0.073785 0.042897 0.486058
v -0.073785 -0.043016 0.486058
v 0.289424 -0.043016 0.486058
v 0.289424 0.042897 0.486058
v -0.073785 0.042897 0.406623
v -0.073785 -0.043016 0.406623
v 0.289424 -0.043016 0.406623
v 0.289424 0.042897 0.406623
v 0.088633 0.042897 0.475867
v 0.127007 0.042897 0.475867
v 0.088633 0.042897 0.461906
v 0.127007 0.042897 0.461906
v 0.088633 0.074276 0.475867
v 0.127007 0.074276 0.475867
v 0.088633 0.075586 0.461906
v 0.127007 0.075586 0.461906
v 0.088633 0.098853 0.473570
v 0.127007 0.098853 0.473570
v 0.088633 0.098853 0.453509
v 0.127007 0.098853 0.453509
v 0.088633 0.075586 0.421300
v 0.127007 0.075586 0.421300
v 0.088633 0.098853 0.421300
v 0.127007 0.098853 0.421300
v 0.088633 0.067794 0.547289
v 0.127007 0.067794 0.547289
v 0.088633 0.098853 0.547578
v 0.127007 0.098853 0.547578
v 0.088633 0.098853 0.519771
v 0.127007 0.098853 0.519771
v 0.127007 0.073881 0.520061
v 0.088633 0.073881 0.520061
v -0.082191 -0.037934 0.239565
v -0.082191 0.038698 0.239565
v 0.078202 0.038698 0.239619
v 0.078202 -0.037934 0.239619
v -0.001994 0.038698 0.239592
v -0.001994 -0.037934 0.239592
v -0.082191 0.000411 0.239565
v 0.078202 0.000411 0.239619
v -0.001979 -0.032255 0.130072
v -0.029926 -0.022255 0.130045
v 0.036010 0.000407 0.130099
v 0.026053 -0.022255 0.130099
v -0.001979 0.033019 0.130072
v 0.026055 0.023019 0.130099
v -0.039969 0.000407 0.130045
v -0.029925 0.023019 0.130044
v -0.001875 -0.023934 -0.041600
v -0.019755 -0.016483 -0.041627
v 0.022356 0.000402 -0.041573
v 0.015950 -0.016483 -0.041573
v -0.001875 0.024701 -0.041600
v 0.015949 0.017250 -0.041573
v -0.026106 0.000402 -0.041627
v -0.019756 0.017250 -0.041627
v -0.001940 0.000351 -0.041600
vn -1.0000 -0.0000 -0.0000
vn -0.0000 -0.0000 1.0000
vn 1.0000 -0.0000 -0.0000
vn -0.0000 -1.0000 -0.0000
vn -0.0000 1.0000 -0.0000
vn 1.0000 -0.0000 0.0035
vn -0.0000 -0.0000 -1.0000
vn -0.0000 -0.0093 1.0000
vn -0.0000 -0.9759 -0.2182
vn -0.0000 -1.0000 -0.0089
vn 0.5657 0.3923 -0.7253
vn 0.5646 -0.3924 -0.7261
vn 0.7847 -0.0000 -0.6199
vn -0.5346 -0.3663 -0.7616
vn -0.4654 -0.7619 -0.4504
vn 0.0024 -0.9049 0.4257
vn -0.4785 0.7624 -0.4356
vn -0.6652 0.7150 -0.2151
vn -0.7687 -0.0000 -0.6397
vn 0.0024 -0.9054 0.4246
vn 0.0024 0.9036 0.4284
vn 0.0024 0.9030 0.4296
vn 0.4819 -0.7561 -0.4428
vn 0.6435 -0.7503 -0.1519
vn 0.4949 0.7564 -0.4277
vn 0.6657 0.7146 -0.2149
vn -0.0001 0.9915 -0.1300
vn -0.6430 -0.7507 -0.1520
vn -0.0014 -0.0000 -1.0000
vn -0.5355 0.3663 -0.7610
vn -0.0000 0.9993 -0.0385
vn -0.0000 -0.9969 -0.0791
vn -0.0003 -0.9986 -0.0520
vn 0.0007 0.7640 -0.6452
vn -0.5251 0.5465 -0.6524
vn -0.9736 0.0004 -0.2284
vn -0.7435 0.0003 -0.6688
vn -0.5254 -0.5463 -0.6523
vn 0.9737 0.0004 -0.2279
vn 0.5264 -0.5460 -0.6518
vn 0.7452 0.0003 -0.6669
vn 0.5261 0.5461 -0.6519
vn 0.0007 -0.7640 -0.6452
vn 0.0013 -0.0000 -1.0000
vt 0.551369 0.432043
vt 0.551369 0.498168
vt 0.493021 0.498168
vt 0.493021 0.432043
vt 0.398737 0.972993
vt 0.222944 0.972993
vt 0.220255 0.969573
vt 0.401426 0.969573
vt 0.493021 0.723676
vt 0.493021 0.657551
vt 0.551369 0.657551
vt 0.551369 0.723676
vt 0.726269 0.363940
vt 0.867934 0.363940
vt 0.867934 0.705402
vt 0.726269 0.705402
vt 0.493021 0.272660
vt 0.551369 0.272660
vt 0.219999 0.896110
vt 0.293025 0.947147
vt 0.293025 0.960110
vt 0.490583 0.501268
vt 0.490583 0.428942
vt 0.490583 0.726776
vt 0.490583 0.654450
vt 0.659681 0.972993
vt 0.483888 0.972993
vt 0.481199 0.969573
vt 0.662370 0.969573
vt 0.401426 0.896356
vt 0.481199 0.896356
vt 0.140483 0.969851
vt 0.140227 0.896389
vt 0.218887 0.676493
vt 0.234537 0.668827
vt 0.251768 0.704003
vt 0.236837 0.713139
vt 0.328656 0.947147
vt 0.328656 0.960110
vt 0.251759 0.703984
vt 0.236828 0.713120
vt 0.240191 0.743812
vt 0.262680 0.732796
vt 0.330928 0.277589
vt 0.371415 0.277589
vt 0.371415 0.312078
vt 0.330928 0.312078
vt 0.234528 0.668808
vt 0.218877 0.676474
vt 0.268487 0.441432
vt 0.228001 0.441432
vt 0.228001 0.408325
vt 0.268487 0.408325
vt 0.371415 0.434614
vt 0.330928 0.434614
vt 0.330928 0.413450
vt 0.371415 0.413450
vt 0.228001 0.270152
vt 0.268487 0.270152
vt 0.268487 0.299490
vt 0.228001 0.299490
vt 0.262689 0.732815
vt 0.240201 0.743831
vt 0.204093 0.761518
vt 0.191317 0.735436
vt 0.330928 0.354920
vt 0.371415 0.354920
vt 0.371415 0.379467
vt 0.330928 0.379467
vt 0.191308 0.735417
vt 0.204084 0.761499
vt 0.268487 0.332260
vt 0.228001 0.332260
vt 0.301084 0.679274
vt 0.314472 0.707426
vt 0.345644 0.692157
vt 0.328264 0.657498
vt 0.268487 0.361696
vt 0.228001 0.361696
vt 0.314481 0.707445
vt 0.301093 0.679293
vt 0.328273 0.657517
vt 0.345653 0.692176
vt 0.371415 0.483359
vt 0.330928 0.483359
vt 0.662626 0.896111
vt 0.969354 0.032471
vt 0.969354 0.098696
vt 0.910918 0.098696
vt 0.910918 0.032471
vt 0.189483 0.801017
vt 0.394450 0.801017
vt 0.397585 0.803159
vt 0.186347 0.803159
vt 0.910917 0.462067
vt 0.910917 0.395842
vt 0.969354 0.395842
vt 0.969354 0.462067
vt 0.728755 0.365781
vt 0.864594 0.365781
vt 0.864594 0.975273
vt 0.728755 0.975273
vt 0.910917 0.759213
vt 0.969354 0.759213
vt 0.397585 0.849358
vt 0.303125 0.817206
vt 0.303125 0.809086
vt 0.906372 0.101801
vt 0.906372 0.029365
vt 0.906372 0.465173
vt 0.906372 0.392736
vt 0.450686 0.801017
vt 0.655654 0.801017
vt 0.658789 0.803159
vt 0.447551 0.803159
vt 0.136381 0.803159
vt 0.186347 0.849358
vt 0.136381 0.849358
vt 0.447551 0.849358
vt 0.280808 0.817206
vt 0.280808 0.809086
vt 0.658789 0.849358
vt 0.650593 0.143816
vt 0.650593 0.236920
vt 0.357080 0.189855
vt 0.040290 0.284060
vt 0.190443 0.494787
vt 0.040514 0.459063
vt 0.339953 0.027767
vt 0.471954 0.042755
vt 0.340312 0.069431
vt 0.674938 0.436263
vt 0.674938 0.473047
vt 0.609484 0.473047
vt 0.609484 0.436263
vt 0.040381 0.458398
vt 0.040605 0.501476
vt 0.189780 0.494020
vt 0.357436 0.231670
vt 0.225215 0.216619
vt 0.189754 0.637453
vt 0.291017 0.593070
vt 0.290337 0.565774
vt 0.471949 0.096171
vt 0.339952 0.111159
vt 0.609484 0.749763
vt 0.674938 0.749763
vt 0.674938 0.287402
vt 0.609484 0.287402
vt 0.026104 0.023489
vt 0.026104 0.116397
vt 0.357435 0.148104
vt 0.225213 0.163155
vt 0.190101 0.565777
vt 0.190977 0.566931
vt 0.289806 0.566832
vt 0.290075 0.593456
vt 0.291078 0.538551
vt 0.447720 0.565903
vt 0.447788 0.542547
vt 0.469543 0.069438
vt 0.633924 0.069464
vt 0.638786 0.092061
vt 0.227600 0.189861
vt 0.058153 0.212527
vt 0.063060 0.189883
vt 0.058156 0.167282
vt 0.443320 0.566781
vt 0.443329 0.589823
vt 0.447728 0.589196
vt 0.290074 0.540278
vt 0.443335 0.543679
vt 0.638784 0.046911
vt 0.033536 0.224097
vt 0.031977 0.189929
vt 0.033552 0.155706
vt 0.663412 0.035362
vt 0.664832 0.069512
vt 0.663423 0.103608
vt 0.040196 0.284060
vt 0.040747 0.502305
vt 0.190563 0.638972
vt 0.040290 0.828398
vt 0.040196 0.825976
s 0
f 1/1/1 2/2/1 4/3/1 3/4/1
f 4/5/2 8/6/2 12/7/2 9/8/2
f 7/9/3 8/10/3 6/11/3 5/12/3
f 5/13/2 6/14/2 2/15/2 1/16/2
f 3/4/4 7/17/4 5/18/4 1/1/4
f 8/10/5 4/3/5 2/2/5 6/11/5
f 12/7/5 16/19/5 20/20/5 18/21/5
f 3/4/2 4/3/2 9/22/2 10/23/2
f 8/10/2 7/9/2 11/24/2 12/25/2
f 7/26/2 3/27/2 10/28/2 11/29/2
f 10/28/1 9/8/1 13/30/1 14/31/1
f 12/7/6 11/32/6 15/33/6 16/19/6
f 19/34/1 17/35/1 21/36/1 23/37/1
f 16/19/5 13/30/5 19/38/5 20/20/5
f 9/8/5 12/7/5 18/21/5 17/39/5
f 13/30/5 9/8/5 17/39/5 19/38/5
f 22/40/3 24/41/3 28/42/3 26/43/3
f 20/44/7 19/45/7 23/46/7 24/47/7
f 18/48/3 20/49/3 24/41/3 22/40/3
f 17/50/2 18/51/2 22/52/2 21/53/2
f 25/54/5 26/55/5 28/56/5 27/57/5
f 38/58/5 37/59/5 35/60/5 36/61/5
f 23/37/1 21/36/1 25/62/1 27/63/1
f 23/37/1 27/63/1 31/64/1 29/65/1
f 30/66/7 29/67/7 31/68/7 32/69/7
f 27/57/5 28/56/5 32/69/5 31/68/5
f 24/47/4 23/46/4 29/67/4 30/66/4
f 28/42/3 24/41/3 30/70/3 32/71/3
f 33/72/8 34/73/8 36/61/8 35/60/8
f 39/74/3 38/75/3 36/76/3 34/77/3
f 40/78/9 39/79/9 34/73/9 33/72/9
f 37/80/1 40/81/1 33/82/1 35/83/1
f 25/62/1 21/36/1 40/81/1 37/80/1
f 21/53/10 22/52/10 39/79/10 40/78/10
f 22/40/3 26/43/3 38/75/3 39/74/3
f 26/55/5 25/54/5 37/84/5 38/85/5
f 11/29/4 10/28/4 14/31/4 15/86/4
f 41/87/1 42/88/1 44/89/1 43/90/1
f 44/91/2 48/92/2 52/93/2 49/94/2
f 47/95/3 48/96/3 46/97/3 45/98/3
f 45/99/2 46/100/2 42/101/2 41/102/2
f 43/103/4 47/95/4 45/98/4 41/104/4
f 48/96/5 44/89/5 42/88/5 46/97/5
f 52/93/5 56/105/5 60/106/5 58/107/5
f 43/90/2 44/89/2 49/108/2 50/109/2
f 48/96/2 47/95/2 51/110/2 52/111/2
f 47/112/2 43/113/2 50/114/2 51/115/2
f 50/116/1 49/94/1 53/117/1 54/118/1
f 52/93/3 51/115/3 55/119/3 56/105/3
f 59/34/1 57/35/1 61/36/1 63/37/1
f 56/105/5 53/117/5 59/120/5 60/106/5
f 49/94/5 52/93/5 58/107/5 57/121/5
f 53/117/5 49/94/5 57/121/5 59/120/5
f 62/40/3 64/41/3 68/42/3 66/43/3
f 60/44/7 59/45/7 63/46/7 64/47/7
f 58/48/3 60/49/3 64/41/3 62/40/3
f 57/50/2 58/51/2 62/52/2 61/53/2
f 65/54/5 66/55/5 68/56/5 67/57/5
f 78/58/5 77/59/5 75/60/5 76/61/5
f 63/37/1 61/36/1 65/62/1 67/63/1
f 63/37/1 67/63/1 71/64/1 69/65/1
f 70/66/7 69/67/7 71/68/7 72/69/7
f 67/57/5 68/56/5 72/69/5 71/68/5
f 64/47/4 63/46/4 69/67/4 70/66/4
f 68/42/3 64/41/3 70/70/3 72/71/3
f 73/72/8 74/73/8 76/61/8 75/60/8
f 79/74/3 78/75/3 76/76/3 74/77/3
f 80/78/9 79/79/9 74/73/9 73/72/9
f 77/80/1 80/81/1 73/82/1 75/83/1
f 65/62/1 61/36/1 80/81/1 77/80/1
f 61/53/10 62/52/10 79/79/10 80/78/10
f 62/40/3 66/43/3 78/75/3 79/74/3
f 66/55/5 65/54/5 77/84/5 78/85/5
f 51/115/4 50/114/4 54/122/4 55/119/4
s 1
f 56/123/11 55/124/12 88/125/13
f 14/126/14 81/127/15 15/128/16
f 82/129/17 96/130/18 87/131/19
f 15/132/16 54/133/20 53/134/21 16/135/22
f 16/136/22 53/137/21 82/138/17
f 84/139/23 92/140/24 88/125/13
f 83/141/25 94/142/26 93/143/27
f 87/131/19 90/144/28 81/145/15
s 0
f 56/146/7 55/147/7 54/133/7 53/134/7
f 16/135/29 15/132/29 14/148/29 13/149/29
s 1
f 13/150/30 87/131/19 14/151/14
f 83/152/25 88/125/13 94/153/26
f 85/154/31 93/143/27 82/138/17
f 86/155/32 89/156/33 92/157/24
f 96/158/18 93/143/27 101/159/34 104/160/35
f 90/144/28 95/161/36 103/162/37 98/163/38
f 91/164/39 92/140/24 100/165/40 99/166/41
f 94/153/26 91/164/39 99/166/41 102/167/42
f 92/157/24 89/156/33 97/168/43 100/169/40
f 93/143/27 94/142/26 102/170/42 101/159/34
f 89/156/33 90/171/28 98/172/38 97/168/43
f 95/161/36 96/130/18 104/173/35 103/162/37
f 81/127/15 90/171/28 86/155/32
f 97/174/43 105/175/44 100/165/40
f 100/165/40 105/175/44 99/166/41
f 99/166/41 105/175/44 102/167/42
f 102/167/42 105/175/44 101/176/34
f 101/177/34 105/178/44 104/173/35
f 104/173/35 105/178/44 103/162/37
f 103/162/37 105/178/44 98/163/38
f 98/163/38 105/178/44 97/179/43
f 85/154/31 53/137/21 83/141/25
f 82/138/17 13/180/30 16/136/22
f 54/181/20 84/182/23 55/183/12
f 88/125/13 83/152/25 56/123/11
f 88/125/13 55/124/12 84/139/23
f 87/131/19 13/150/30 82/129/17
f 14/151/14 87/131/19 81/145/15
f 15/128/16 81/127/15 54/181/20
f 82/138/17 53/137/21 85/154/31
f 83/141/25 53/137/21 56/184/11
f 54/181/20 81/127/15 86/155/32
f 92/157/24 84/182/23 86/155/32
f 86/155/32 90/171/28 89/156/33
f 84/182/23 54/181/20 86/155/32
f 82/138/17 93/143/27 96/158/18
f 93/143/27 85/154/31 83/141/25
f 94/153/26 88/125/13 91/164/39
f 88/125/13 92/140/24 91/164/39
f 87/131/19 96/130/18 95/161/36
f 90/144/28 87/131/19 95/161/36
