# Blender 4.3.2
# www.blender.org
mtllib PSU.mtl
o Cube
v 0.587835 -0.130497 0.750000
v 0.700000 -0.061596 0.750000
v -0.700000 -0.061596 0.750000
v -0.587835 -0.130497 0.750000
v 0.700000 -0.061596 -0.750000
v 0.587835 -0.130497 -0.750000
v -0.587835 -0.130497 -0.750000
v -0.700000 -0.061596 -0.750000
v 0.700000 0.660601 0.750000
v 0.587835 0.729503 0.750000
v -0.587835 0.729503 0.750000
v -0.700000 0.660601 0.750000
v 0.587835 0.729503 -0.750000
v 0.700000 0.660601 -0.750000
v -0.700000 0.660601 -0.750000
v -0.587835 0.729503 -0.750000
v -0.001291 0.300169 0.750000
v -0.000217 0.299661 -0.750000
vn -0.0000 -0.0000 1.0000
vn 0.2720 0.9623 -0.0000
vn -0.2720 0.9623 -0.0000
vn -0.8728 0.4882 -0.0000
vn -0.8728 -0.4882 -0.0000
vn 0.2720 -0.9623 -0.0000
vn -0.2720 -0.9623 -0.0000
vn -0.0000 -0.0000 -1.0000
vn 0.8728 -0.4882 -0.0000
vn 0.8728 0.4882 -0.0000
vt 0.923335 0.656886
vt 0.955664 0.604258
vt 0.754219 0.327837
vt 0.584477 0.656886
vt 0.720308 0.969637
vt 0.500051 0.969637
vt 0.500051 0.707353
vt 0.720308 0.707353
vt 0.470334 0.969637
vt 0.250077 0.969637
vt 0.250077 0.707353
vt 0.470334 0.707353
vt 0.000103 0.707353
vt 0.220359 0.707353
vt 0.220359 0.969637
vt 0.000103 0.969637
vt 0.072759 0.656886
vt 0.040430 0.604258
vt 0.242262 0.328341
vt 0.411616 0.656886
vt 0.970282 0.969637
vt 0.970282 0.707353
vt 1.000000 0.707353
vt 1.000000 0.969637
vt 0.750026 0.707353
vt 0.750026 0.969637
vt 0.552149 0.052628
vt 0.552149 0.604258
vt 0.955664 0.052628
vt 0.923335 0.000000
vt 0.584477 0.000000
vt 0.443945 0.052628
vt 0.072759 0.000000
vt 0.411617 0.000000
vt 0.443945 0.604258
vt 0.040430 0.052628
s 0
usemtl Material
f 9/1/1 10/2/1 17/3/1 2/4/1
s 1
f 13/5/2 16/6/3 11/7/3 10/8/2
f 15/9/4 8/10/5 3/11/5 12/12/4
f 1/13/6 4/14/7 7/15/7 6/16/6
s 0
f 5/17/8 6/18/8 18/19/8 14/20/8
s 1
f 5/21/9 2/22/9 1/23/6 6/24/6
f 3/11/5 8/10/5 7/15/7 4/14/7
f 9/25/10 14/26/10 13/5/2 10/8/2
f 15/9/4 12/12/4 11/7/3 16/6/3
f 5/21/9 14/26/10 9/25/10 2/22/9
s 0
f 2/4/1 17/3/1 4/27/1 1/28/1
f 17/3/1 10/2/1 11/29/1 12/30/1
f 4/27/1 17/3/1 12/30/1 3/31/1
f 16/32/8 18/19/8 8/33/8 15/34/8
f 14/20/8 18/19/8 16/32/8 13/35/8
f 8/33/8 18/19/8 6/18/8 7/36/8
