# Blender 4.3.2
# www.blender.org
mtllib Standoff.mtl
o obj_0
v -0.026919 0.074996 -0.014454
v -0.026919 0.004996 -0.014454
v -0.026919 0.004996 0.016316
v -0.026919 0.074996 0.016316
v -0.019919 0.004996 -0.000044
v 0.019701 0.074996 -0.000044
v 0.019701 0.024976 -0.000044
v 0.001381 0.004996 -0.029844
v -0.019949 0.074996 -0.000044
v -0.000119 0.004996 -0.019844
v -0.000119 0.074996 -0.019874
v -0.005249 0.024976 0.019106
v 0.001381 0.074996 -0.029844
v -0.007709 0.024976 0.018276
v -0.010029 0.024976 0.017126
v -0.012189 0.024976 0.015686
v -0.014139 0.024976 0.013976
v -0.015849 0.024976 0.012026
v -0.017289 0.024976 0.009866
v -0.005249 0.074996 0.019106
v -0.018439 0.024976 0.007546
v -0.007709 0.074996 0.018276
v -0.010029 0.074996 0.017126
v -0.000119 0.024976 -0.019874
v -0.019269 0.024976 0.005086
v -0.012189 0.074996 0.015686
v -0.019779 0.024976 0.002546
v -0.014139 0.074996 0.013976
v -0.019779 0.024976 -0.002634
v -0.019269 0.024976 -0.005174
v -0.018439 0.024976 -0.007634
v -0.017289 0.024976 -0.009954
v -0.015849 0.024976 -0.012114
v -0.019949 0.024976 -0.000044
v -0.002709 0.024976 0.019616
v 0.013901 0.024976 0.013976
v 0.013881 -0.055004 -0.014044
v 0.011951 0.024976 0.015686
v -0.015849 0.074996 0.012026
v -0.017289 0.074996 0.009866
v 0.011931 -0.055004 -0.015754
v 0.009791 0.024976 0.017126
v -0.018439 0.074996 0.007546
v 0.009781 -0.055004 -0.017194
v 0.007471 0.024976 0.018276
v 0.007461 -0.055004 -0.018334
v 0.005011 0.024976 0.019106
v -0.019269 0.074996 0.005086
v 0.005001 -0.055004 -0.019174
v 0.002471 0.024976 0.019616
v -0.019779 0.074996 0.002546
v 0.002461 -0.055004 -0.019674
v -0.000119 0.004996 0.019756
v -0.019779 0.074996 -0.002634
v 0.015611 0.024976 -0.012114
v -0.000119 -0.055004 -0.019844
v 0.001381 0.004996 0.031706
v -0.019269 0.074996 -0.005174
v 0.017051 0.024976 -0.009954
v -0.002699 -0.055004 -0.019674
v -0.018439 0.074996 -0.007634
v -0.005239 -0.055004 -0.019174
v 0.018201 0.024976 -0.007634
v -0.017289 0.074996 -0.009954
v -0.000119 0.074996 0.019776
v -0.007699 -0.055004 -0.018334
v 0.019031 0.024976 -0.005174
v -0.015849 0.074996 -0.012114
v -0.010019 -0.055004 -0.017194
v 0.019541 0.024976 -0.002634
v -0.012169 -0.055004 -0.015754
v -0.002709 0.074996 0.019616
v -0.014119 -0.055004 -0.014044
v 0.001381 0.074996 0.031706
v 0.019541 0.024976 0.002546
v 0.019031 0.024976 0.005086
v 0.015591 -0.055004 0.012006
v 0.013901 0.074996 0.013976
v 0.018201 0.024976 0.007546
v 0.011951 0.074996 0.015686
v -0.000119 0.024976 0.019776
v 0.017031 -0.055004 0.009856
v 0.009791 0.074996 0.017126
v 0.017051 0.024976 0.009866
v 0.018171 -0.055004 0.007536
v 0.007471 0.074996 0.018276
v 0.005011 0.074996 0.019106
v 0.015611 0.024976 0.012026
v 0.019011 -0.055004 0.005076
v 0.002471 0.074996 0.019616
v 0.019511 -0.055004 0.002536
v 0.015611 0.074996 -0.012114
v 0.019681 -0.055004 -0.000044
v -0.014139 0.024976 -0.014064
v 0.017051 0.074996 -0.009954
v 0.019511 -0.055004 -0.002624
v -0.012189 0.024976 -0.015774
v 0.018201 0.074996 -0.007634
v 0.019011 -0.055004 -0.005164
v -0.010029 0.024976 -0.017214
v -0.007699 0.004996 0.018246
v -0.005239 0.004996 0.019086
v -0.007709 0.024976 -0.018364
v -0.005249 0.024976 -0.019194
v -0.005199 0.004996 0.019094
v 0.019031 0.074996 -0.005174
v -0.002709 0.024976 -0.019704
v 0.019541 0.074996 -0.002634
v 0.019541 0.074996 0.002546
v 0.002471 0.024976 -0.019704
v 0.019031 0.074996 0.005086
v 0.018201 0.074996 0.007546
v 0.005011 0.024976 -0.019194
v 0.015591 -0.055004 -0.012094
v 0.017031 -0.055004 -0.009944
v 0.018171 -0.055004 -0.007624
v 0.017051 0.074996 0.009866
v 0.007471 0.024976 -0.018364
v 0.015611 0.074996 0.012026
v 0.009791 0.024976 -0.017214
v -0.000119 -0.055004 0.019756
v -0.002699 -0.055004 0.019586
v 0.011951 0.024976 -0.015774
v 0.013881 -0.055004 0.013956
v 0.011931 -0.055004 0.015666
v 0.009781 -0.055004 0.017106
v 0.007461 -0.055004 0.018246
v 0.005001 -0.055004 0.019086
v -0.014139 0.074996 -0.014064
v 0.002461 -0.055004 0.019586
v 0.013901 0.024976 -0.014064
v -0.012189 0.074996 -0.015774
v -0.010029 0.074996 -0.017214
v -0.019249 -0.055004 0.005076
v -0.019749 -0.055004 0.002536
v -0.019919 -0.055004 -0.000044
v -0.019749 -0.055004 -0.002624
v -0.019249 -0.055004 -0.005164
v -0.018409 -0.055004 -0.007624
v -0.017269 -0.055004 -0.009944
v -0.015829 -0.055004 -0.012094
v -0.007709 0.074996 -0.018364
v -0.005249 0.074996 -0.019194
v -0.005239 -0.055004 0.019086
v -0.007699 -0.055004 0.018246
v -0.010019 -0.055004 0.017106
v -0.012169 -0.055004 0.015666
v -0.014119 -0.055004 0.013956
v -0.015829 -0.055004 0.012006
v -0.017269 -0.055004 0.009856
v -0.018409 -0.055004 0.007536
v -0.002709 0.074996 -0.019704
v 0.029681 0.004996 -0.014454
v 0.029681 0.004996 0.016316
v 0.019681 0.004996 -0.000044
v 0.002471 0.074996 -0.019704
v 0.005011 0.074996 -0.019194
v 0.007471 0.074996 -0.018364
v 0.009791 0.074996 -0.017214
v 0.011951 0.074996 -0.015774
v 0.013901 0.074996 -0.014064
v 0.029681 0.074996 -0.014454
v 0.029681 0.074996 0.016316
v -0.007699 0.004996 -0.018334
v -0.010019 0.004996 -0.017194
v -0.012169 0.004996 -0.015754
v -0.014119 0.004996 -0.014044
v -0.014154 0.004996 -0.014004
v 0.015281 0.004996 0.012360
v 0.015591 0.004996 0.012006
v 0.017031 0.004996 0.009856
v 0.018171 0.004996 0.007536
v 0.019011 0.004996 0.005076
v 0.019511 0.004996 0.002536
v 0.019511 0.004996 -0.002624
v 0.019011 0.004996 -0.005164
v 0.018171 0.004996 -0.007624
v 0.017031 0.004996 -0.009944
v 0.015591 0.004996 -0.012094
v 0.015281 0.004996 -0.012447
v 0.002461 0.004996 0.019586
v 0.005001 0.004996 0.019086
v 0.007461 0.004996 0.018246
v 0.009781 0.004996 0.017106
v 0.011931 0.004996 0.015666
v 0.013881 0.004996 0.013956
v 0.013916 0.004996 -0.014004
v -0.002699 0.004996 0.019586
v -0.015829 0.004996 -0.012094
v -0.017269 0.004996 -0.009944
v -0.018409 0.004996 -0.007624
v -0.019249 0.004996 -0.005164
v -0.019749 0.004996 -0.002624
v -0.019749 0.004996 0.002536
v -0.019249 0.004996 0.005076
v -0.018771 0.004996 0.006476
v -0.018409 0.004996 0.007536
v -0.017269 0.004996 0.009856
v -0.015829 0.004996 0.012006
v -0.014119 0.004996 0.013956
v 0.013881 0.004996 -0.014044
v -0.012169 0.004996 0.015666
v 0.011931 0.004996 -0.015754
v -0.010019 0.004996 0.017106
v 0.009781 0.004996 -0.017194
v 0.007461 0.004996 -0.018334
v 0.005001 0.004996 -0.019174
v 0.002461 0.004996 -0.019674
v -0.002699 0.004996 -0.019674
v -0.005239 0.004996 -0.019174
vn -1.0000 -0.0000 -0.0000
vn -0.0000 -1.0000 -0.0000
vn -0.0000 1.0000 -0.0000
vn -0.4777 -0.0000 -0.8785
vn -0.4777 -0.0000 0.8785
vn 0.0655 -0.0000 0.9978
vn 0.4777 -0.0000 0.8785
vn 0.3231 -0.0000 0.9463
vn 0.4410 -0.0000 0.8975
vn -0.6593 -0.0000 -0.7519
vn -0.5547 -0.0000 -0.8320
vn 1.0000 -0.0000 -0.0000
vn -0.1968 -0.0000 -0.9804
vn -0.0617 -0.0000 -0.9981
vn 0.4777 -0.0000 -0.8785
vn 0.9804 -0.0000 0.1969
vn 0.9475 -0.0000 0.3197
vn -0.9804 -0.0000 0.1969
vn -0.9981 -0.0000 0.0617
vn 0.7519 -0.0000 0.6593
vn -0.9981 -0.0000 -0.0617
vn -0.9804 -0.0000 -0.1969
vn 0.9475 -0.0000 -0.3197
vn -0.9475 -0.0000 -0.3197
vn -0.8960 -0.0000 -0.4441
vn 0.9979 -0.0000 0.0655
vn 0.8960 -0.0000 0.4441
vn 0.0658 -0.0000 0.9978
vn 0.1931 -0.0000 0.9812
vn 0.0617 -0.0000 -0.9981
vn 0.8975 -0.0000 0.4410
vn 0.1968 -0.0000 -0.9804
vn 0.5565 -0.0000 0.8308
vn 0.9464 -0.0000 0.3231
vn 0.6593 -0.0000 0.7519
vn 0.9812 -0.0000 0.1932
vn -0.0655 -0.0000 0.9978
vn -0.7519 -0.0000 -0.6593
vn 0.9978 -0.0000 0.0657
vn -0.1931 -0.0000 0.9812
vn -0.4441 -0.0000 0.8960
vn -0.5547 -0.0000 0.8321
vn -0.6593 -0.0000 0.7518
vn -0.7519 -0.0000 0.6593
vn -0.8321 -0.0000 0.5547
vn 0.3197 -0.0000 -0.9475
vn -0.9475 -0.0000 0.3197
vn -0.9812 -0.0000 0.1932
vn 0.4441 -0.0000 -0.8960
vn 0.5547 -0.0000 -0.8320
vn -0.9463 -0.0000 0.3232
vn 0.6593 -0.0000 -0.7519
vn -0.8975 -0.0000 0.4410
vn 0.7519 -0.0000 -0.6593
vn -0.8309 -0.0000 0.5565
vn 0.8321 -0.0000 -0.5547
vn 0.8960 -0.0000 -0.4441
vn -0.0658 -0.0000 0.9978
vn -0.7518 -0.0000 -0.6594
vn 0.9804 -0.0000 -0.1969
vn -0.8309 -0.0000 -0.5565
vn -0.8975 -0.0000 -0.4410
vn 0.9979 -0.0000 -0.0655
vn 0.7518 -0.0000 0.6594
vn -0.9464 -0.0000 -0.3231
vn 0.3197 -0.0000 0.9475
vn -0.9812 -0.0000 -0.1932
vn 0.1968 -0.0000 0.9804
vn -0.9978 -0.0000 -0.0657
vn -0.9978 -0.0000 0.0657
vn -0.1945 -0.0000 0.9809
vn -0.1968 -0.0000 0.9804
vn 0.8321 -0.0000 0.5547
vn -0.9464 -0.0000 0.3231
vn -0.3197 -0.0000 0.9475
vn -0.7522 -0.0000 -0.6589
vn -0.6593 -0.0000 0.7519
vn -0.5565 -0.0000 0.8308
vn -0.4410 -0.0000 0.8975
vn -0.3231 -0.0000 0.9463
vn -0.4441 -0.0000 -0.8960
vn -0.3197 -0.0000 -0.9475
vn 0.7519 -0.0000 -0.6592
vn 0.6593 -0.0000 -0.7518
vn 0.5565 -0.0000 -0.8309
vn -0.8960 -0.0000 0.4441
vn -0.0657 -0.0000 -0.9978
vn -0.1932 -0.0000 -0.9812
vn -0.3231 -0.0000 -0.9463
vn -0.4410 -0.0000 -0.8975
vn 0.7522 -0.0000 -0.6589
vn 0.7513 -0.0000 -0.6599
vn -0.5565 -0.0000 -0.8309
vn -0.6593 -0.0000 -0.7518
vn -0.7518 -0.0000 -0.6593
vn -0.8321 -0.0000 -0.5547
vn 0.7523 -0.0000 0.6588
vn 0.4410 -0.0000 -0.8975
vn 0.8309 -0.0000 0.5565
vn 0.3231 -0.0000 -0.9463
vn 0.1932 -0.0000 -0.9812
vn 0.0657 -0.0000 -0.9978
vn 0.5547 -0.0000 0.8321
vn 0.4441 -0.0000 0.8960
vn 0.9978 -0.0000 -0.0657
vn 0.9812 -0.0000 -0.1932
vn 0.9464 -0.0000 -0.3231
vn 0.8975 -0.0000 -0.4410
vn 0.8309 -0.0000 -0.5565
vn 0.7518 -0.0000 -0.6593
s 0
usemtl color_16089887.002
f 1//1 2//1 3//1
f 1//1 3//1 4//1
f 5//2 2//2 193//2
f 194//2 3//2 5//2
f 2//2 5//2 3//2
f 153//2 205//2 8//2
f 61//3 64//3 1//3
f 1//3 4//3 9//3
f 11//3 156//3 13//3
f 156//3 157//3 13//3
f 13//3 158//3 159//3
f 160//3 162//3 159//3
f 13//4 2//4 1//4
f 57//5 4//5 3//5
f 152//6 24//6 11//6
f 23//3 74//3 22//3
f 39//3 4//3 28//3
f 40//3 4//3 39//3
f 43//3 4//3 40//3
f 48//3 4//3 43//3
f 51//3 4//3 48//3
f 9//3 4//3 51//3
f 53//2 181//2 57//2
f 1//3 9//3 54//3
f 58//3 1//3 54//3
f 61//3 1//3 58//3
f 26//3 4//3 23//3
f 74//3 23//3 4//3
f 26//3 28//3 4//3
f 68//3 1//3 64//3
f 163//3 83//3 74//3
f 65//3 72//3 74//3
f 72//3 20//3 74//3
f 22//3 74//3 20//3
f 163//7 74//7 154//7
f 57//7 154//7 74//7
f 74//5 4//5 57//5
f 80//3 163//3 78//3
f 83//3 163//3 80//3
f 90//3 74//3 87//3
f 87//3 74//3 86//3
f 65//3 74//3 90//3
f 57//2 102//2 105//2
f 106//3 162//3 98//3
f 108//3 162//3 106//3
f 144//2 145//2 69//2
f 66//2 122//2 69//2
f 62//2 122//2 66//2
f 60//2 122//2 62//2
f 56//2 122//2 60//2
f 52//2 122//2 56//2
f 49//2 122//2 52//2
f 46//2 122//2 49//2
f 44//2 122//2 46//2
f 41//2 122//2 44//2
f 37//2 122//2 41//2
f 73//2 71//2 145//2
f 115//2 116//2 114//2
f 114//2 116//2 99//2
f 114//2 99//2 96//2
f 114//2 96//2 93//2
f 114//2 93//2 91//2
f 114//2 91//2 89//2
f 114//2 89//2 85//2
f 114//2 85//2 82//2
f 114//2 82//2 77//2
f 78//3 163//3 119//3
f 117//3 119//3 163//3
f 86//3 74//3 83//3
f 144//2 69//2 122//2
f 141//2 73//2 145//2
f 37//2 114//2 122//2
f 121//2 122//2 114//2
f 77//2 124//2 114//2
f 124//2 125//2 114//2
f 125//2 126//2 114//2
f 126//2 127//2 114//2
f 127//2 128//2 114//2
f 130//2 114//2 128//2
f 121//2 114//2 130//2
f 133//3 1//3 132//3
f 132//3 1//3 129//3
f 136//2 137//2 135//2
f 134//2 135//2 137//2
f 134//2 137//2 138//2
f 134//2 138//2 139//2
f 140//2 151//2 139//2
f 71//2 69//2 145//2
f 140//2 141//2 145//2
f 1//3 133//3 13//3
f 129//3 1//3 68//3
f 143//3 13//3 142//3
f 148//2 140//2 147//2
f 147//2 140//2 146//2
f 149//2 140//2 148//2
f 145//2 146//2 140//2
f 150//2 140//2 149//2
f 151//2 140//2 150//2
f 134//2 139//2 151//2
f 152//3 13//3 143//3
f 11//3 13//3 152//3
f 142//3 13//3 133//3
f 154//2 155//2 153//2
f 155//2 175//2 153//2
f 175//2 176//2 153//2
f 183//8 128//8 127//8
f 6//3 162//3 108//3
f 183//9 127//9 126//9
f 158//3 13//3 157//3
f 109//3 163//3 6//3
f 161//3 162//3 160//3
f 95//3 162//3 92//3
f 80//10 36//10 38//10
f 13//3 159//3 162//3
f 80//11 38//11 42//11
f 161//3 92//3 162//3
f 95//3 98//3 162//3
f 111//3 163//3 109//3
f 112//3 163//3 111//3
f 163//3 112//3 117//3
f 162//3 6//3 163//3
f 154//12 153//12 162//12
f 154//12 162//12 163//12
f 50//13 90//13 47//13
f 90//14 50//14 81//14
f 162//15 153//15 13//15
f 8//15 13//15 153//15
f 58//16 29//16 30//16
f 58//17 30//17 31//17
f 108//18 67//18 70//18
f 108//19 70//19 6//19
f 124//20 77//20 169//20
f 75//21 109//21 7//21
f 166//2 167//2 2//2
f 167//2 168//2 2//2
f 109//22 75//22 76//22
f 21//23 25//23 43//23
f 112//24 76//24 79//24
f 112//25 79//25 84//25
f 54//26 9//26 29//26
f 58//16 54//16 29//16
f 183//2 184//2 57//2
f 170//2 154//2 169//2
f 171//2 154//2 170//2
f 31//17 61//17 58//17
f 64//27 61//27 31//27
f 130//28 181//28 53//28
f 130//28 53//28 121//28
f 171//2 172//2 154//2
f 181//29 130//29 128//29
f 94//20 129//20 68//20
f 172//2 173//2 154//2
f 72//30 65//30 35//30
f 81//30 35//30 65//30
f 85//31 172//31 171//31
f 126//9 184//9 183//9
f 72//32 35//32 20//32
f 126//33 125//33 184//33
f 185//33 184//33 125//33
f 173//34 172//34 85//34
f 154//2 173//2 174//2
f 154//2 174//2 155//2
f 185//35 125//35 124//35
f 91//36 174//36 173//36
f 156//37 11//37 110//37
f 110//37 11//37 24//37
f 119//38 88//38 78//38
f 78//10 36//10 80//10
f 155//39 174//39 91//39
f 188//40 105//40 122//40
f 159//41 118//41 120//41
f 177//2 178//2 153//2
f 159//42 120//42 160//42
f 123//42 160//42 120//42
f 160//43 123//43 131//43
f 81//14 65//14 90//14
f 92//44 161//44 55//44
f 178//2 179//2 153//2
f 92//45 55//45 95//45
f 12//32 20//32 35//32
f 14//46 22//46 12//46
f 20//46 12//46 22//46
f 98//47 67//47 106//47
f 195//48 135//48 134//48
f 15//49 23//49 14//49
f 22//49 14//49 23//49
f 106//18 67//18 108//18
f 23//50 15//50 16//50
f 23//50 16//50 26//50
f 197//51 196//51 151//51
f 182//2 183//2 57//2
f 181//2 182//2 57//2
f 17//52 28//52 16//52
f 26//52 16//52 28//52
f 151//53 150//53 197//53
f 18//54 39//54 28//54
f 18//54 28//54 17//54
f 199//55 150//55 149//55
f 109//22 76//22 111//22
f 148//44 200//44 149//44
f 39//56 18//56 40//56
f 19//56 40//56 18//56
f 128//29 182//29 181//29
f 111//24 76//24 112//24
f 154//2 57//2 184//2
f 19//57 21//57 40//57
f 43//57 40//57 21//57
f 183//8 182//8 128//8
f 184//2 185//2 154//2
f 169//2 154//2 186//2
f 185//2 186//2 154//2
f 188//58 122//58 53//58
f 121//58 53//58 122//58
f 48//23 43//23 25//23
f 189//59 168//59 141//59
f 94//35 97//35 129//35
f 48//60 25//60 51//60
f 27//60 51//60 25//60
f 124//35 186//35 185//35
f 189//61 141//61 190//61
f 140//61 190//61 141//61
f 191//62 190//62 139//62
f 140//62 139//62 190//62
f 9//63 51//63 34//63
f 27//63 34//63 51//63
f 169//64 186//64 124//64
f 191//65 139//65 192//65
f 138//65 192//65 139//65
f 104//66 143//66 142//66
f 9//26 34//26 29//26
f 193//67 192//67 137//67
f 138//67 137//67 192//67
f 152//68 143//68 104//68
f 137//69 136//69 5//69
f 137//69 5//69 193//69
f 105//2 188//2 57//2
f 57//2 188//2 53//2
f 5//70 136//70 135//70
f 102//71 144//71 105//71
f 32//27 64//27 31//27
f 157//72 156//72 110//72
f 64//73 32//73 68//73
f 33//73 68//73 32//73
f 134//74 151//74 196//74
f 118//75 158//75 157//75
f 168//2 189//2 2//2
f 190//2 2//2 189//2
f 195//74 134//74 196//74
f 158//41 118//41 159//41
f 167//76 73//76 168//76
f 197//53 150//53 198//53
f 191//2 2//2 190//2
f 150//55 199//55 198//55
f 131//43 161//43 160//43
f 199//44 149//44 200//44
f 192//2 2//2 191//2
f 55//44 161//44 131//44
f 147//77 202//77 200//77
f 147//77 200//77 148//77
f 202//78 147//78 146//78
f 12//3 55//3 14//3
f 14//3 55//3 15//3
f 25//3 21//3 17//3
f 21//3 19//3 17//3
f 19//3 18//3 17//3
f 55//3 131//3 15//3
f 101//79 146//79 145//79
f 2//2 192//2 193//2
f 80//11 42//11 83//11
f 145//80 144//80 101//80
f 102//80 101//80 144//80
f 86//81 83//81 45//81
f 42//81 45//81 83//81
f 144//40 122//40 105//40
f 25//3 17//3 27//3
f 34//3 27//3 17//3
f 107//3 104//3 17//3
f 94//3 33//3 17//3
f 33//3 32//3 17//3
f 32//3 31//3 17//3
f 30//3 17//3 31//3
f 29//3 17//3 30//3
f 34//3 17//3 29//3
f 47//82 87//82 45//82
f 86//82 45//82 87//82
f 187//83 180//83 37//83
f 135//70 194//70 5//70
f 47//13 90//13 87//13
f 203//84 37//84 41//84
f 195//2 3//2 194//2
f 41//85 44//85 203//85
f 135//48 195//48 194//48
f 45//3 55//3 47//3
f 42//3 55//3 45//3
f 38//3 59//3 42//3
f 36//3 59//3 38//3
f 131//3 123//3 15//3
f 123//3 120//3 15//3
f 47//3 55//3 50//3
f 35//3 55//3 12//3
f 81//3 55//3 35//3
f 50//3 55//3 81//3
f 95//45 55//45 59//45
f 197//2 198//2 3//2
f 196//2 3//2 195//2
f 196//2 197//2 3//2
f 67//3 36//3 70//3
f 63//3 36//3 67//3
f 59//3 36//3 63//3
f 55//3 42//3 59//3
f 7//3 70//3 36//3
f 88//3 84//3 7//3
f 75//3 7//3 84//3
f 79//3 76//3 84//3
f 75//3 84//3 76//3
f 36//3 88//3 7//3
f 95//86 59//86 63//86
f 95//86 63//86 98//86
f 198//2 199//2 3//2
f 199//2 200//2 3//2
f 98//47 63//47 67//47
f 56//87 60//87 209//87
f 200//2 202//2 3//2
f 209//88 60//88 210//88
f 62//88 210//88 60//88
f 100//3 17//3 103//3
f 97//3 17//3 100//3
f 104//3 103//3 17//3
f 94//3 17//3 97//3
f 16//3 15//3 120//3
f 17//3 16//3 120//3
f 120//3 118//3 17//3
f 118//3 113//3 17//3
f 113//3 110//3 17//3
f 24//3 17//3 110//3
f 107//3 17//3 24//3
f 7//19 6//19 70//19
f 202//2 204//2 3//2
f 101//2 57//2 204//2
f 62//89 66//89 164//89
f 62//89 164//89 210//89
f 201//2 203//2 153//2
f 187//2 201//2 153//2
f 176//2 177//2 153//2
f 179//2 180//2 153//2
f 180//2 187//2 153//2
f 6//21 7//21 109//21
f 165//90 164//90 69//90
f 66//90 69//90 164//90
f 3//2 204//2 57//2
f 37//91 201//91 187//91
f 179//92 114//92 180//92
f 165//93 69//93 166//93
f 71//93 166//93 69//93
f 37//84 203//84 201//84
f 71//94 73//94 166//94
f 167//94 166//94 73//94
f 146//78 204//78 202//78
f 206//2 8//2 205//2
f 203//2 205//2 153//2
f 112//25 84//25 117//25
f 141//95 168//95 73//95
f 102//2 57//2 101//2
f 203//85 44//85 205//85
f 207//2 8//2 206//2
f 101//79 204//79 146//79
f 117//96 84//96 88//96
f 117//96 88//96 119//96
f 170//97 169//97 77//97
f 206//98 205//98 46//98
f 44//98 46//98 205//98
f 82//99 171//99 77//99
f 170//99 77//99 171//99
f 36//38 78//38 88//38
f 207//100 206//100 49//100
f 46//100 49//100 206//100
f 208//2 8//2 207//2
f 171//31 82//31 85//31
f 49//101 52//101 208//101
f 49//101 208//101 207//101
f 68//20 33//20 94//20
f 10//2 8//2 208//2
f 10//102 208//102 56//102
f 52//102 56//102 208//102
f 173//34 85//34 89//34
f 10//2 209//2 8//2
f 209//2 210//2 8//2
f 132//35 129//35 97//35
f 2//4 13//4 8//4
f 173//36 89//36 91//36
f 209//87 10//87 56//87
f 210//2 164//2 8//2
f 2//2 8//2 165//2
f 166//2 2//2 165//2
f 132//103 97//103 133//103
f 100//103 133//103 97//103
f 155//39 91//39 93//39
f 133//104 100//104 142//104
f 103//104 142//104 100//104
f 164//2 165//2 8//2
f 155//105 93//105 175//105
f 96//105 175//105 93//105
f 104//66 142//66 103//66
f 96//106 99//106 175//106
f 176//106 175//106 99//106
f 107//68 152//68 104//68
f 176//107 99//107 177//107
f 116//107 177//107 99//107
f 116//108 115//108 177//108
f 178//108 177//108 115//108
f 107//6 24//6 152//6
f 178//109 115//109 179//109
f 114//109 179//109 115//109
f 37//110 180//110 114//110
f 113//72 157//72 110//72
f 157//75 113//75 118//75
