# Blender 4.3.2
# www.blender.org
mtllib SSD.mtl
o obj_0
v -0.400000 0.017967 0.110000
v -0.400000 0.017967 -0.110000
v -0.400000 -0.002033 -0.110000
v -0.400000 -0.002033 0.110000
v 0.400000 0.017967 -0.110000
v 0.400000 -0.002033 -0.110000
v 0.400000 -0.002033 0.110000
v 0.400000 0.017967 0.110000
vn -1.0000 -0.0000 -0.0000
vn -0.0000 -0.0000 -1.0000
vn -0.0000 -1.0000 -0.0000
vn -0.0000 1.0000 -0.0000
vn -0.0000 -0.0000 1.0000
vn 1.0000 -0.0000 -0.0000
vt 0.000000 0.000000
vt 0.000000 0.500000
vt 1.000000 0.500000
vt 1.000000 0.000000
vt 1.000000 0.500000
vt 1.000000 1.000000
vt 0.000000 1.000000
vt 0.000000 0.500000
s 0
usemtl color_2829873
f 1/1/1 2/2/1 3/2/1
f 1/1/1 3/2/1 4/1/1
f 3/2/2 2/2/2 5/3/2
f 3/2/2 5/3/2 6/3/2
f 4/1/3 3/2/3 6/3/3
f 4/1/3 6/3/3 7/4/3
f 8/5/4 5/6/4 2/7/4
f 8/5/4 2/7/4 1/8/4
f 7/4/5 8/4/5 1/1/5
f 7/4/5 1/1/5 4/1/5
f 7/4/6 6/3/6 5/3/6
f 7/4/6 5/3/6 8/4/6
