# Blender 4.3.2
# www.blender.org
mtllib CPU Fan.mtl
o obj_0.002
v 0.065000 -0.045000 -0.040000
v 0.065000 -0.045000 0.040000
v -0.065000 -0.045000 0.040000
v -0.065000 -0.045000 -0.040000
v 0.065000 0.045000 -0.040000
v 0.065000 0.045000 0.040000
v -0.065000 0.045000 -0.040000
v -0.065000 0.045000 0.040000
vn 1.0000 -0.0000 -0.0000
vn -1.0000 -0.0000 -0.0000
vn -0.0000 1.0000 -0.0000
vn -0.0000 -0.0000 1.0000
vn -0.0000 -0.0000 -1.0000
vn -0.0000 -1.0000 -0.0000
vt 0.852876 0.235343
vt 0.852876 0.500000
vt 0.617625 0.500000
vt 0.617625 0.235343
vt 0.000092 0.500000
vt 0.000092 0.235343
vt 0.235343 0.235343
vt 0.235343 0.500000
vt 0.617625 0.735251
vt 0.235343 0.735251
vt 0.617625 0.999908
vt 0.235343 0.999908
vt 0.617625 0.000092
vt 0.235343 0.000092
s 0
usemtl color_15277357
f 1/1/1 5/2/1 6/3/1
f 1/1/1 6/3/1 2/4/1
f 7/5/2 4/6/2 3/7/2
f 7/5/2 3/7/2 8/8/2
f 5/9/3 7/10/3 8/8/3
f 5/9/3 8/8/3 6/3/3
f 8/8/4 3/7/4 2/4/4
f 8/8/4 2/4/4 6/3/4
f 5/9/5 1/11/5 4/12/5
f 5/9/5 4/12/5 7/10/5
f 1/13/6 2/4/6 4/14/6
f 4/14/6 2/4/6 3/7/6
